<?xml version="1.0" encoding="utf-8"?>
<!-- Generator: Adobe Illustrator 22.1.0, SVG Export Plug-In . SVG Version: 6.00 Build 0)  -->
<svg version="1.1" id="圖層_1" xmlns="http://www.w3.org/2000/svg" xmlns:xlink="http://www.w3.org/1999/xlink" x="0px" y="0px"
	 viewBox="0 0 320.9 46.3" style="enable-background:new 0 0 320.9 46.3;" xml:space="preserve">
<style type="text/css">
	.st0{fill:#595757;}
</style>
<title>資產 15logo</title>
<g>
	<path class="st0" d="M174.1,40.6c1,0,0.8-0.3,0.8-3.1V23.2c0-2.8,0.2-3.1-0.8-3.1l-0.1-0.7l4.5-0.1l0,0.8c-1.1,0-1,0.3-1,3.1
		l0.1,17.2h4c3.5,0,4.8,0.3,5.1-1l0.9,0.1l-0.1,1.8h-13.4L174.1,40.6z"/>
	<path class="st0" d="M291.8,40.5c-0.3,0-0.6,0-0.9-0.1c-0.3-0.1-0.6-0.3-0.8-0.5c-0.1-0.1-3.7-4.7-5.1-6.5c1-0.1,2-0.3,2.9-0.7
		c1.2-0.5,2.3-1.4,3-2.5c0.6-1.1,0.9-2.2,1-3.5c0.1-2-0.7-4.2-2.3-5.5c-1.7-1.4-3.9-1.8-6-1.8c0,0-8.9,0-8.9,0l0.1,0.8
		c0.9,0,0.6,0.3,0.6,5v13.7c0,1.3,0.1,1.8-0.6,1.8l0,0.8h4.2l-0.1-0.8c-0.5,0-0.7-0.4-0.7-3.4v-3.7c0,0,3.9,0,3.9,0l5.4,7.3
		c0,0,0.5,0.6,1.6,0.6c0,0,2.7,0,2.8,0C291.9,41.3,291.8,40.5,291.8,40.5z M278.2,20.3c3.2,0,8-0.5,10,2.6c1,1.5,1,3.4,0.6,5.1
		c-0.3,1.5-1.1,2.8-2.5,3.6c-1,0.6-2.2,0.8-3.5,0.8c-1.6,0-4.7,0-4.7,0V20.3z"/>
	<path class="st0" d="M203.9,18.8c-6.4,0-11.6,5.1-11.6,11.3s5.2,11.3,11.6,11.3c6.4,0,11.6-5.1,11.6-11.3S210.3,18.8,203.9,18.8z
		 M210.6,37.3c-1.5,2.2-3.8,3.3-6.7,3.3s-5.2-1.2-6.7-3.3c-1.3-2-2-4.4-2-7.3s0.7-4.9,2-6.9c1.5-2.2,3.8-3.3,6.7-3.3
		s5.2,1.1,6.7,3.3c1.3,2,2,4.3,2,7.3C212.5,33.3,211.9,35.3,210.6,37.3z"/>
	<g>
		<path class="st0" d="M269.6,39c-0.3,1.2-1.2,1.1-3.7,1.1l-6.7-0.1l-0.1-11.4l6.4-0.1c0.1,0,0.3,0.1,0.3,0.3l0.4,0v-1.6l-0.4,0
			c0,0.2-0.1,0.2-0.3,0.3l-6.4,0.1l-0.1-7.6l6.7-0.1c1.9,0,2.3-0.1,2.6,0.7l0.8-0.1l-0.5-1.5l-13.2,0.2l0,0.7c0-0.1,0.4,0,0.5,0.1
			c0.1,0.1,0.1,0.2,0.1,0.3c0,0.9,0.1,1.7,0.1,2.6c0,1.9,0.2,16.5,0.1,16.7c0,0.1,0,0.2-0.1,0.3c-0.1,0.1-0.2,0.2-0.4,0.2
			c0,0,0,0.9,0,0.9l1.4,0l0,0l12.9,0l0.3-2.1L269.6,39z"/>
	</g>
	<path class="st0" d="M169.1,19.2l-14,0.1l0,0.7c0-0.1,0.4,0,0.5,0.1c0.1,0.1,0.1,0.2,0.1,0.3c0,0.9,0.1,1.8,0.1,2.7
		c0,1.9,0.2,16.5,0.1,16.7c0,0.1,0,0.2-0.1,0.3c-0.1,0.1-0.2,0.2-0.4,0.2c0,0,0,0.9,0,0.9l2.7,0l0.1,0h1.7v-0.9c0,0-0.7,0-0.8-0.5
		l0-1.5c0,0,0-0.1,0-0.1h0l-0.1-9.7l6.4,0c0.1,0,0.3,0.1,0.3,0.3h0.4v-1.5h-0.4c0,0.2-0.1,0.2-0.3,0.3l-6.4,0l-0.1-7.5l7.5-0.1
		c1.9,0,2.3-0.1,2.6,0.7l0.8-0.1L169.1,19.2z"/>
	<path class="st0" d="M250.7,19.3l-2.4,0.1l0,0.5l0.2,0c0,0,0.4,0,0.3,0.4c-0.5,1.7-5.2,17.6-5.2,17.6c-0.1-0.2-0.2-0.5-0.3-0.7
		c-0.2-0.6-0.5-1.2-0.7-1.9c-0.3-0.9-0.7-1.8-1-2.6c-0.4-1-0.8-2-1.1-3c-0.4-1-0.8-2-1.1-3.1c-0.3-0.9-0.7-1.8-1-2.7
		c-0.2-0.7-0.5-1.3-0.7-2c-0.2-0.5-0.4-1-0.4-1.5c0-0.3,0.2-0.5,0.5-0.6c0.2,0,0.4,0,0.4,0l0.1-0.5l-5.5,0.2c0,0,0.1,0.5,0.1,0.5
		c0.3,0,0.7,0,0.9,0.3c0.2,0.3,0.3,0.7,0.5,1.1c0,0.1,0.1,0.2,0.1,0.3c0.1,0.2,0.1,0.3,0.2,0.5l-4.7,15.7l-5.5-16.9
		c-0.1-0.3-0.2-0.8,0.1-1.1c0.2-0.2,0.4-0.2,0.7-0.2l0.1-0.5l-5.4,0.2l0.1,0.5c0,0,0,0,0.1,0c0.2,0,0.8,0.1,1.1,1.1c0,0,0,0.1,0,0.1
		l6.6,20.1h2.3l5.2-17.5c0.1,0.4,0.3,0.8,0.4,1.1c0.4,1,0.7,2,1.1,3c0.4,1.1,0.8,2.2,1.2,3.3c0.4,1.1,0.8,2.2,1.2,3.3
		c0.4,1,0.7,2,1.1,2.9c0.3,0.8,0.6,1.5,0.8,2.3c0.2,0.4,0.3,0.9,0.5,1.3c0,0,0.1,0.2,0.1,0.2c0,0,2.3,0,2.3,0c0-0.1,0.1-0.2,0.1-0.4
		c0.1-0.3,0.2-0.7,0.3-1c0.2-0.5,0.3-1,0.5-1.5c0.2-0.7,0.4-1.3,0.6-2c0.2-0.7,0.5-1.5,0.7-2.2c0.2-0.8,0.5-1.6,0.7-2.4
		c0.2-0.8,0.5-1.6,0.7-2.5c0.2-0.8,0.5-1.6,0.7-2.4c0.2-0.7,0.4-1.5,0.7-2.2c0.2-0.6,0.4-1.3,0.6-1.9c0.1-0.5,0.3-1,0.4-1.5
		c0.1-0.4,0.2-0.8,0.3-1.1c0-0.1,0.1-0.2,0.2-0.2c0.1-0.1,0.2-0.1,0.3-0.1L250.7,19.3z"/>
	<path class="st0" d="M20.3,40.6c1,0,0.8-0.3,0.8-3.1V23.2c0-2.8,0.2-3.1-0.8-3.1l-0.1-0.7l4.5-0.1l0,0.8c-1.1,0-1,0.3-1,3.1
		l0.1,17.2h4c3.5,0,4.8,0.3,5.1-1l0.9,0.1l-0.1,1.8H20.4L20.3,40.6z"/>
	<path class="st0" d="M138,40.5c-0.3,0-0.6,0-0.9-0.1c-0.3-0.1-0.6-0.3-0.8-0.5c-0.1-0.1-3.7-4.7-5.1-6.5c1-0.1,2-0.3,2.9-0.7
		c1.2-0.5,2.3-1.4,3-2.5c0.6-1.1,0.9-2.2,1-3.5c0.1-2-0.7-4.2-2.3-5.5c-1.7-1.4-3.9-1.8-6-1.8c0,0-8.9,0-8.9,0l0.1,0.8
		c0.9,0,0.6,0.3,0.6,5v13.7c0,1.3,0.1,1.8-0.6,1.8l0,0.8h4.2l-0.1-0.8c-0.5,0-0.7-0.4-0.7-3.4v-3.7c0,0,3.9,0,3.9,0l5.4,7.3
		c0,0,0.5,0.6,1.6,0.6c0,0,2.7,0,2.8,0C138.2,41.3,138,40.5,138,40.5z M124.4,20.3c3.2,0,8-0.5,10,2.6c1,1.5,1,3.4,0.6,5.1
		c-0.3,1.5-1.1,2.8-2.5,3.6c-1,0.6-2.2,0.8-3.5,0.8c-1.6,0-4.7,0-4.7,0V20.3z"/>
	<path class="st0" d="M50.1,18.8c-6.4,0-11.6,5.1-11.6,11.3s5.2,11.3,11.6,11.3c6.4,0,11.6-5.1,11.6-11.3S56.5,18.8,50.1,18.8z
		 M56.8,37.3c-1.5,2.2-3.8,3.3-6.7,3.3c-2.9,0-5.2-1.2-6.7-3.3c-1.3-2-2-4.4-2-7.3s0.7-4.9,2-6.9c1.5-2.2,3.8-3.3,6.7-3.3
		c2.9,0,5.2,1.1,6.7,3.3c1.3,2,2,4.3,2,7.3C58.8,33.3,58.1,35.3,56.8,37.3z"/>
	<g>
		<path class="st0" d="M115.8,39c-0.3,1.2-1.2,1.1-3.7,1.1l-6.7-0.1l-0.1-11.4l6.4-0.1c0.1,0,0.3,0.1,0.3,0.3l0.4,0v-1.6l-0.4,0
			c0,0.2-0.1,0.2-0.3,0.3l-6.4,0.1l-0.1-7.6l6.7-0.1c1.9,0,2.3-0.1,2.6,0.7l0.8-0.1l-0.5-1.5l-13.2,0.2l0,0.7c0-0.1,0.4,0,0.5,0.1
			c0.1,0.1,0.1,0.2,0.1,0.3c0,0.9,0.1,1.7,0.1,2.6c0,1.9,0.2,16.5,0.1,16.7c0,0.1,0,0.2-0.1,0.3c-0.1,0.1-0.2,0.2-0.4,0.2
			c0,0,0,0.9,0,0.9l1.4,0l0,0l12.9,0l0.3-2.1L115.8,39z"/>
	</g>
	<path class="st0" d="M15.3,19.2l-14,0.1l0,0.7c0-0.1,0.4,0,0.5,0.1c0.1,0.1,0.1,0.2,0.1,0.3c0,0.9,0.1,1.8,0.1,2.7
		c0,1.9,0.2,16.5,0.1,16.7c0,0.1,0,0.2-0.1,0.3c-0.1,0.1-0.2,0.2-0.4,0.2c0,0,0,0.9,0,0.9l2.7,0l0.1,0H6v-0.9c0,0-0.7,0-0.8-0.5
		l0-1.5c0,0,0-0.1,0-0.1h0L5,28.7l6.4,0c0.1,0,0.3,0.1,0.3,0.3h0.4v-1.5h-0.4c0,0.2-0.1,0.2-0.3,0.3l-6.4,0l-0.1-7.5l7.5-0.1
		c1.9,0,2.3-0.1,2.6,0.7l0.8-0.1L15.3,19.2z"/>
	<path class="st0" d="M97,19.3l-2.4,0.1l0,0.5l0.2,0c0,0,0.4,0,0.3,0.4c-0.5,1.7-5.2,17.6-5.2,17.6c-0.1-0.2-0.2-0.5-0.3-0.7
		c-0.2-0.6-0.5-1.2-0.7-1.9c-0.3-0.9-0.7-1.8-1-2.6c-0.4-1-0.8-2-1.1-3c-0.4-1-0.8-2-1.1-3.1c-0.3-0.9-0.7-1.8-1-2.7
		c-0.2-0.7-0.5-1.3-0.7-2c-0.2-0.5-0.4-1-0.4-1.5c0-0.3,0.2-0.5,0.5-0.6c0.2,0,0.4,0,0.4,0l0.1-0.5l-5.5,0.2c0,0,0.1,0.5,0.1,0.5
		c0.3,0,0.7,0,0.9,0.3c0.2,0.3,0.3,0.7,0.5,1.1c0,0.1,0.1,0.2,0.1,0.3c0.1,0.2,0.1,0.3,0.2,0.5L76,37.9l-5.5-16.9
		c-0.1-0.3-0.2-0.8,0.1-1.1c0.2-0.2,0.4-0.2,0.7-0.2l0.1-0.5L66,19.5l0.1,0.5c0,0,0,0,0.1,0c0.2,0,0.8,0.1,1.1,1.1c0,0,0,0.1,0,0.1
		l6.6,20.1h2.3l5.2-17.5c0.1,0.4,0.3,0.8,0.4,1.1c0.4,1,0.7,2,1.1,3c0.4,1.1,0.8,2.2,1.2,3.3c0.4,1.1,0.8,2.2,1.2,3.3
		c0.4,1,0.7,2,1.1,2.9c0.3,0.8,0.6,1.5,0.8,2.3c0.2,0.4,0.3,0.9,0.5,1.3c0,0,0.1,0.2,0.1,0.2c0,0,2.3,0,2.3,0c0-0.1,0.1-0.2,0.1-0.4
		c0.1-0.3,0.2-0.7,0.3-1c0.2-0.5,0.3-1,0.5-1.5c0.2-0.7,0.4-1.3,0.6-2c0.2-0.7,0.5-1.5,0.7-2.2c0.2-0.8,0.5-1.6,0.7-2.4
		c0.2-0.8,0.5-1.6,0.7-2.5c0.2-0.8,0.5-1.6,0.7-2.4c0.2-0.7,0.4-1.5,0.7-2.2c0.2-0.6,0.4-1.3,0.6-1.9c0.1-0.5,0.3-1,0.4-1.5
		c0.1-0.4,0.2-0.8,0.3-1.1c0-0.1,0.1-0.2,0.2-0.2c0.1-0.1,0.2-0.1,0.3-0.1L97,19.3z"/>
	<g>
		<path class="st0" d="M302.1,28c0,0,0.1,0,0.1,0c0.1,0,0.2,0,0.3-0.1c0.4-0.5,0.7-1.3,0.8-1.5l0.1-1.4c0-0.1-0.1-0.3-0.2-0.3
			l-0.8-0.4c-0.1-0.1-0.2,0-0.3,0c-0.1,0.1-0.2,0.2-0.2,0.3l0,3.1C301.9,27.8,301.9,27.9,302.1,28z"/>
		<path class="st0" d="M308.4,28.4l-0.8-0.4c-0.1-0.1-0.2,0-0.3,0c-0.1,0.1-0.2,0.2-0.2,0.3V29h-4.8l0-0.3c0-0.1-0.1-0.3-0.2-0.3
			l-0.8-0.4c-0.1-0.1-0.2,0-0.3,0c-0.1,0.1-0.2,0.2-0.2,0.3v14.6c0,0.1,0.1,0.3,0.2,0.3c0,0,0.1,0,0.1,0c0.1,0,0.2,0,0.2-0.1
			c0.3-0.2,0.6-0.7,0.9-1.8h4.9v1.5c0,0.1,0.1,0.3,0.2,0.3c0,0,0.1,0,0.1,0c0.1,0,0.2,0,0.2-0.1c0.3-0.2,0.7-0.8,0.9-2.1l0-12.4
			C308.6,28.5,308.5,28.4,308.4,28.4z M302.2,35.2l0-5.4h4.8v5.4H302.2z M307.1,36v4.6h-4.9l0-4.6H307.1z"/>
		<path class="st0" d="M318.2,26.1l-0.7-0.4c-0.1-0.1-0.3-0.1-0.5,0c-0.1,0.1-0.2,0.2-0.2,0.4v0.5h-5.9l0-0.5c0-0.2-0.1-0.3-0.2-0.4
			l-0.7-0.4c-0.1-0.1-0.3-0.1-0.4,0c-0.1,0.1-0.2,0.2-0.2,0.3l0,5.3c0,0.2,0.1,0.3,0.3,0.4c0,0,0.1,0,0.1,0c0.1,0,0.2-0.1,0.3-0.2
			c0.4-0.5,0.6-1.1,0.7-1.3c0,0,0-0.1,0-0.1l0.1-2.4h5.9V36c0,0.2,0.2,5.1-3.4,7.3c-0.3,0.2-0.3,0.4-0.2,0.6
			c0.1,0.2,0.2,0.2,0.4,0.2c0.1,0,0.1,0,0.2-0.1l0.2-0.1c2.8-1.5,4.2-4,4.4-7.9v-9.6C318.4,26.4,318.3,26.2,318.2,26.1z"/>
		<path class="st0" d="M313.5,33c0-0.1-0.1-0.3-0.2-0.3l-0.8-0.2c-0.1,0-0.2,0-0.2,0.1c-0.1,0.1-0.1,0.1-0.1,0.2v1.7
			c0,0,0.1,1.9-0.3,2.9c-0.1,0.1,0,0.3,0.1,0.3c0.1,0,0.1,0.1,0.2,0.1s0.1,0,0.2-0.1c0.5-0.4,1.3-1.1,1.3-2.2
			C313.4,34.4,313.5,33.3,313.5,33z"/>
	</g>
	<g>
		<path class="st0" d="M300.5,5h3.7l0,2.4l0.2,0c0,0,0,0,0,0c0.2,0,0.3-0.1,0.4-0.2c0.5-0.5,0.8-1.1,0.8-1.3c0,0,0,0,0-0.1l0-0.9
			h7.5l0,2.4l0.2,0c0,0,0,0,0,0c0.2,0,0.3-0.1,0.4-0.2c0.5-0.5,0.8-1.1,0.8-1.3c0,0,0,0,0-0.1l0-0.9h3h0.8h0.1
			c0.2,0,0.3-0.1,0.3-0.3V4.1c0-0.1-0.1-0.2-0.2-0.3l-0.9-0.3c-0.1,0-0.2,0-0.3,0c-0.1,0.1-0.1,0.2-0.1,0.3v0.4h-2.7l0-1
			c0-0.3,0-0.5-0.2-0.6l-0.9-0.4c-0.1,0-0.2,0-0.3,0c-0.2,0.1-0.2,0.4-0.2,0.5l0,1.5h-7.4l0-1c0-0.3,0-0.5-0.2-0.6l-0.9-0.4
			c-0.1,0-0.2,0-0.3,0c-0.2,0.1-0.2,0.4-0.2,0.5l0,1.5h-3.7c-0.2,0-0.4,0.2-0.4,0.4S300.3,5,300.5,5z"/>
		<path class="st0" d="M307,6.7c-0.1-0.1-0.1-0.1-0.2-0.1c-0.1,0-0.2,0.1-0.2,0.2c-0.3,0.6-2,3.7-6.9,7.4c-0.1,0.1-0.1,0.2-0.1,0.3
			c0,0.1,0.1,0.2,0.2,0.2c0,0,0,0,0.1,0c0.4-0.1,1-0.3,1.9-0.9l0.2-0.1c0.5-0.3,1.1-0.7,1.8-1.3l0,9.4c0,0.1,0.1,0.2,0.2,0.3
			c0,0,0.1,0,0.1,0c0.1,0,0.2,0,0.2-0.1c0.5-0.5,0.8-1.4,0.9-1.5l0.1-9.5c0.8-0.8,1.6-1.7,2.4-3c0.1-0.1,0.1-0.2,0-0.3L307,6.7z"/>
		<path class="st0" d="M319.2,19.7c0,0-0.1,0-0.2-0.1l-0.1,0c0-0.6-0.1-0.7-0.1-0.7c0,0-0.1-0.1-0.2-0.1c-0.2,0-0.2,0.2-0.3,0.5
			c-0.1,0.2-0.1,0.5-1,0.3c-2-0.3-3.9-1.9-4.8-4c-0.2-0.4-0.3-0.8-0.4-1.2c2-0.9,3.8-2.4,5.6-4.5c0.4-0.4,0.7-0.9,1.1-1.4
			c0.1-0.1,0.1-0.2,0-0.3l-0.7-0.9c-0.1-0.1-0.2-0.1-0.2-0.1c-0.1,0-0.2,0.1-0.2,0.2c-0.2,0.5-1.6,2.8-5.8,5.6
			c0-0.6-0.1-1.1-0.1-1.7c0-1.2,0-2.5,0-3.7l0-0.1l-0.2-0.2L310.7,7c-0.1,0-0.2,0-0.3,0.1c-0.1,0.1-0.1,0.1-0.1,0.2v3.3
			c0,1.1,0,2.2,0.2,3.3c-0.5,0.3-1,0.6-1.5,0.8c-0.3,0.1-0.5,0.3-0.8,0.4c0,0,0,0,0,0l0.1,0.2l0.1,0.2c0,0,0.1,0,0.1,0
			c0,0,0.1,0,0.1,0c0,0,0,0,0,0c0.2,0,0.5-0.1,0.8-0.1c0.4-0.1,0.9-0.2,1.4-0.4c0.1,0.3,0.1,0.5,0.2,0.8c0.8,2.2,2.4,4,4.7,4.9
			c0.7,0.3,1.5,0.5,2.1,0.5c0.1,0,0.2,0,0.4,0c0.2,0,1.3-0.2,1.5-0.8C319.6,20.2,319.6,19.9,319.2,19.7z"/>
	</g>
</g>
</svg>
